HIERARCHY
ROOT Hips
{
	OFFSET 0.000000 0.000000 0.000000
	CHANNELS 6 Xposition Yposition Zposition Zrotation Yrotation Xrotation 
	JOINT LHipJoint
	{
		OFFSET 0.000000 0.000000 0.000000
		CHANNELS 3 Zrotation Yrotation Xrotation
		JOINT LeftUpLeg
		{
			OFFSET 1.363060 -1.794630 0.839290
			CHANNELS 3 Zrotation Yrotation Xrotation
			JOINT LeftLeg
			{
				OFFSET 2.448110 -6.726130 0.000000
				CHANNELS 3 Zrotation Yrotation Xrotation
				JOINT LeftFoot
				{
					OFFSET 2.562200 -7.039590 0.000000
					CHANNELS 3 Zrotation Yrotation Xrotation
					JOINT LeftToeBase
					{
						OFFSET 0.157640 -0.433110 2.322550
						CHANNELS 3 Zrotation Yrotation Xrotation
						End Site
						{
							OFFSET 0.000000 0.000000 0.000000
						}
					}
				}
			}
		}
	}
	JOINT RHipJoint
	{
		OFFSET 0.000000 0.000000 0.000000
		CHANNELS 3 Zrotation Yrotation Xrotation
		JOINT RightUpLeg
		{
			OFFSET -1.305520 -1.794630 0.839290
			CHANNELS 3 Zrotation Yrotation Xrotation
			JOINT RightLeg
			{
				OFFSET -2.542530 -6.985550 0.000000
				CHANNELS 3 Zrotation Yrotation Xrotation
				JOINT RightFoot
				{
					OFFSET -2.568260 -7.056230 0.000000
					CHANNELS 3 Zrotation Yrotation Xrotation
					JOINT RightToeBase
					{
						OFFSET -0.164730 -0.452590 2.363150
						CHANNELS 3 Zrotation Yrotation Xrotation
						End Site
						{
							OFFSET 0.000000 0.000000 0.000000
						}
					}
				}
			}
		}
	}
	JOINT LowerBack
	{
		OFFSET 0.000000 0.000000 0.000000
		CHANNELS 3 Zrotation Yrotation Xrotation
		JOINT Spine
		{
			OFFSET 0.028270 2.035590 -0.193380
			CHANNELS 3 Zrotation Yrotation Xrotation
			JOINT Spine1
			{
				OFFSET 0.056720 2.048850 -0.042750
				CHANNELS 3 Zrotation Yrotation Xrotation
				JOINT Neck
				{
					OFFSET 0.000000 0.000000 0.000000
					CHANNELS 3 Zrotation Yrotation Xrotation
					JOINT Neck1
					{
						OFFSET -0.054170 1.746240 0.172020
						CHANNELS 3 Zrotation Yrotation Xrotation
						JOINT Head
						{
							OFFSET 0.104070 1.761360 -0.123970
							CHANNELS 3 Zrotation Yrotation Xrotation
							End Site
							{
								OFFSET 0.000000 0.000000 0.000000
							}
						}
					}
				}
				JOINT LeftShoulder
				{
					OFFSET 0.000000 0.000000 0.000000
					CHANNELS 3 Zrotation Yrotation Xrotation
					JOINT LeftArm
					{
						OFFSET 3.362410 1.200890 -0.311210
						CHANNELS 3 Zrotation Yrotation Xrotation
						JOINT LeftForeArm
						{
							OFFSET 4.983000 -0.000000 -0.000000
							CHANNELS 3 Zrotation Yrotation Xrotation
							JOINT LeftHand
							{
								OFFSET 3.483560 -0.000000 -0.000000
								CHANNELS 3 Zrotation Yrotation Xrotation
								JOINT LeftFingerBase
								{
									OFFSET 0.000000 0.000000 0.000000
									CHANNELS 3 Zrotation Yrotation Xrotation
									JOINT LeftHandIndex1
									{
										OFFSET 0.715260 -0.000000 -0.000000
										CHANNELS 3 Zrotation Yrotation Xrotation
										End Site
										{
											OFFSET 0.000000 0.000000 0.000000
										}
									}
								}
								JOINT LThumb
								{
									OFFSET 0.000000 0.000000 0.000000
									CHANNELS 3 Zrotation Yrotation Xrotation
									End Site
									{
										OFFSET 0.000000 0.000000 0.000000
									}
								}
							}
						}
					}
				}
				JOINT RightShoulder
				{
					OFFSET 0.000000 0.000000 0.000000
					CHANNELS 3 Zrotation Yrotation Xrotation
					JOINT RightArm
					{
						OFFSET -3.136600 1.374050 -0.404650
						CHANNELS 3 Zrotation Yrotation Xrotation
						JOINT RightForeArm
						{
							OFFSET -5.241900 -0.000000 -0.000000
							CHANNELS 3 Zrotation Yrotation Xrotation
							JOINT RightHand
							{
								OFFSET -3.444170 -0.000000 -0.000000
								CHANNELS 3 Zrotation Yrotation Xrotation
								JOINT RightFingerBase
								{
									OFFSET 0.000000 0.000000 0.000000
									CHANNELS 3 Zrotation Yrotation Xrotation
									JOINT RightHandIndex1
									{
										OFFSET -0.622530 -0.000000 -0.000000
										CHANNELS 3 Zrotation Yrotation Xrotation
										End Site
										{
											OFFSET 0.000000 0.000000 0.000000
										}
									}
								}
								JOINT RThumb
								{
									OFFSET 0.000000 0.000000 0.000000
									CHANNELS 3 Zrotation Yrotation Xrotation
									End Site
									{
										OFFSET 0.000000 0.000000 0.000000
									}
								}
							}
						}
					}
				}
			}
		}
	}
}
MOTION
Frames: 10
Frame Time: 0.016667
-1.826621 16.405861 24.063877 0.286600 -6.977393 10.731306 -3.274389 14.925022 -2.107002 -20.438472 -3.052024 -9.473679 -9.017285 -7.566712 -22.858050 0.177740 9.282556 16.640361 0.000000 0.000000 0.000000 10.589127 -17.606105 -1.588609 19.191429 18.204609 -17.175319 -33.830170 -12.676593 64.370688 25.661102 -56.124724 19.184379 0.000000 0.000000 0.000000 -6.876515 0.932659 11.672378 9.287549 1.827979 -9.639239 -1.636282 1.792077 -5.169467 0.612269 -0.058609 -0.628542 1.933853 -0.028592 2.364374 0.000000 0.000000 0.000000 -0.142603 14.750201 12.568984 -70.970337 -4.628955 5.990412 -169.339966 -88.637976 -179.766310 4.340793 -10.590202 0.114102 4.372970 -10.578626 0.000000 0.000000 0.000000 0.000000 0.000000 0.000000 0.000000 -1.453171 -15.250546 7.227083 59.811390 8.151993 11.749749 35.889291 50.132864 0.152671 0.887614 7.952141 0.075795 0.880880 7.954913 0.000000 0.000000 0.000000 0.000000 0.000000 0.000000 0.000000 
-1.763338 16.488500 24.330849 0.307814 -6.686975 10.927088 -4.454116 15.052463 -1.298666 -19.546966 -3.705555 -10.532823 -8.652855 -7.156914 -21.209693 -0.012128 7.932552 13.950773 0.000000 0.000000 0.000000 10.294632 -17.557135 -0.749246 17.923842 17.363811 -17.310881 -32.299895 -13.528633 62.921460 25.141198 -56.120155 19.913804 0.000000 0.000000 0.000000 -5.494061 0.958717 10.488116 8.672109 1.642543 -8.220346 -2.413104 1.820627 -5.543651 0.780203 -0.132039 -0.725651 1.557179 -0.047282 2.390138 0.000000 0.000000 0.000000 -1.064779 14.639325 12.221116 -70.169087 -4.467140 7.244094 -170.068984 -89.255859 -179.753299 4.406441 -10.897018 0.120306 4.441394 -10.884615 0.000000 0.000000 0.000000 0.000000 0.000000 0.000000 0.000000 -1.478290 -14.767362 7.871731 60.483759 7.026278 13.855601 33.554850 55.632779 0.214217 0.826075 8.980465 0.106357 0.818947 8.983888 0.000000 0.000000 0.000000 0.000000 0.000000 0.000000 0.000000 
-1.712472 16.561921 24.579715 0.350643 -6.247636 11.078213 -5.612312 15.073456 -0.517918 -18.582840 -4.318415 -11.534728 -8.306748 -6.801186 -19.680592 -0.137735 6.689150 11.539676 0.000000 0.000000 0.000000 10.137032 -17.372917 -0.023649 16.602460 16.400171 -17.350187 -30.654915 -14.421113 61.532388 24.719491 -56.191804 20.451750 0.000000 0.000000 0.000000 -4.198861 0.982827 9.336299 7.889477 1.436465 -6.693495 -2.968502 1.813662 -5.957038 0.992007 -0.200373 -0.895944 1.222777 -0.061858 2.385728 0.000000 0.000000 0.000000 -1.797457 14.384791 11.895411 -69.435654 -4.300864 8.732139 8.799372 -89.941117 0.267477 4.404005 -11.238257 0.130396 4.441300 -11.225455 0.000000 0.000000 0.000000 0.000000 0.000000 0.000000 0.000000 -1.530352 -14.264098 8.350567 61.245872 5.852800 16.054836 30.391669 61.293311 0.275731 0.638481 9.980198 0.136819 0.630333 9.984250 0.000000 0.000000 0.000000 0.000000 0.000000 0.000000 0.000000 
-1.569165 16.701474 24.917550 -0.003495 -6.379821 11.606177 -9.758335 16.023588 2.855482 -13.935312 -6.313989 -16.469200 -8.160250 -6.479851 -18.057418 -0.273741 5.712927 9.149015 0.000000 0.000000 0.000000 10.165570 -17.946838 1.530772 14.775400 15.929760 -18.293794 -28.746543 -14.879931 59.221792 23.698841 -56.075842 22.033825 0.000000 0.000000 0.000000 -0.676140 1.129477 5.328019 6.154585 1.091051 -1.376018 -4.283880 1.865640 -8.149089 0.975871 -0.259153 -0.926375 0.619542 -0.067033 1.856181 0.000000 0.000000 0.000000 -4.006907 14.599299 11.496646 -67.498714 -3.944033 10.223199 8.163792 -89.217085 0.291036 4.480698 -11.534565 0.141858 4.520382 -11.521018 0.000000 0.000000 0.000000 0.000000 0.000000 0.000000 0.000000 -0.620105 -14.354089 8.438110 61.019131 4.687234 17.699909 27.105386 65.250391 0.326034 0.344564 10.760568 0.161655 0.334687 10.764984 0.000000 0.000000 0.000000 0.000000 0.000000 0.000000 0.000000 
-1.513533 16.775743 25.158302 0.055302 -6.140265 11.612911 -11.621050 16.236844 4.262529 -11.915623 -6.944945 -18.279448 -7.943426 -6.153830 -16.741491 -0.326662 4.807085 7.233351 0.000000 0.000000 0.000000 10.165043 -17.849015 2.331284 13.361576 14.990550 -18.282765 -27.176044 -15.530018 57.669965 23.144610 -56.141933 22.806768 0.000000 0.000000 0.000000 1.206776 1.278851 3.265889 4.238423 0.845806 2.148752 -4.446000 1.754076 -9.315569 1.130574 -0.285386 -1.273382 0.476794 -0.065272 1.654786 0.000000 0.000000 0.000000 -4.631424 14.380798 11.156060 -66.749775 -3.986097 11.286198 7.392054 -88.643541 0.308950 4.479358 -11.760704 0.150600 4.520514 -11.746950 0.000000 0.000000 0.000000 0.000000 0.000000 0.000000 0.000000 -0.371938 -14.277431 8.377329 61.495040 3.989125 18.628146 24.434444 68.154635 0.356603 0.073962 11.346338 0.176632 0.061847 11.350794 0.000000 0.000000 0.000000 0.000000 0.000000 0.000000 0.000000 
-1.465799 16.842401 25.383642 0.235530 -6.117937 11.436039 -13.125274 16.249497 5.291076 -10.448212 -7.123826 -19.231053 -7.583999 -5.855021 -15.844000 -0.358582 4.135759 5.686867 0.000000 0.000000 0.000000 10.104261 -17.758208 3.139197 11.999599 14.116468 -18.139446 -25.796350 -16.028914 56.169152 22.585456 -56.184976 23.621373 0.000000 0.000000 0.000000 2.938261 1.521330 1.386473 1.976270 0.729023 5.817751 -4.409417 1.642487 -10.390725 1.323480 -0.292913 -1.744016 0.511987 -0.056888 1.516406 0.000000 0.000000 0.000000 -4.951944 14.200423 10.767673 -66.215212 -4.228484 12.000992 6.969272 -88.298491 0.321162 4.494741 -11.903166 0.156558 4.536892 -11.889199 0.000000 0.000000 0.000000 0.000000 0.000000 0.000000 0.000000 -0.273414 -14.247615 8.284012 62.180412 3.621935 18.708083 22.724257 69.360804 0.375880 -0.116836 11.804404 0.186027 -0.130853 11.808769 0.000000 0.000000 0.000000 0.000000 0.000000 0.000000 0.000000 
-1.426866 16.900688 25.592914 0.430987 -6.161951 11.256956 -14.461150 16.167920 6.138171 -9.173934 -7.134586 -19.876517 -7.213533 -5.591398 -15.187593 -0.370662 3.613385 4.377938 0.000000 0.000000 0.000000 10.097979 -17.646017 3.866105 10.708418 13.304049 -17.968307 -24.551645 -16.432882 54.769708 22.080623 -56.246777 24.385368 0.000000 0.000000 0.000000 4.487579 1.787693 -0.248038 -0.322438 0.731594 9.146654 -4.271742 1.513989 -11.200924 1.538122 -0.284237 -2.259943 0.698596 -0.044143 1.468630 0.000000 0.000000 0.000000 -4.999870 14.061807 10.344806 -65.902058 -4.617042 12.345527 6.956898 -88.201080 0.326780 4.537411 -11.955254 0.159290 4.580124 -11.940990 0.000000 0.000000 0.000000 0.000000 0.000000 0.000000 0.000000 -0.368957 -14.236797 8.260929 63.069683 3.574294 18.070981 22.076310 68.958293 0.387359 -0.191709 12.162718 0.191621 -0.206699 12.167031 0.000000 0.000000 0.000000 0.000000 0.000000 0.000000 0.000000 
-1.393521 16.953186 25.790180 0.675702 -6.253839 10.993352 -15.622660 16.158519 6.914056 -8.126744 -7.115554 -20.402037 -6.903713 -5.277429 -14.423084 -0.377602 3.097235 3.083327 0.000000 0.000000 0.000000 10.069903 -17.555396 4.583775 9.465994 12.499677 -17.738319 -23.433346 -16.792127 53.401297 21.523662 -56.239548 25.202920 0.000000 0.000000 0.000000 5.925814 2.082021 -1.928972 -2.597760 0.845794 12.607954 -3.949607 1.371578 -12.014298 1.754431 -0.271973 -2.829691 0.800082 -0.025641 1.228981 0.000000 0.000000 0.000000 -4.927389 13.795964 10.024699 -65.696965 -4.851825 13.024187 6.277459 -87.752566 0.336849 4.527412 -12.139992 0.164135 4.571609 -12.125537 0.000000 0.000000 0.000000 0.000000 0.000000 0.000000 0.000000 -0.408077 -14.242562 8.124593 63.725152 3.565761 17.789809 21.293121 69.124537 0.396249 -0.297720 12.417522 0.195934 -0.313793 12.421694 0.000000 0.000000 0.000000 0.000000 0.000000 0.000000 0.000000 
-1.366719 16.999321 25.974879 0.982005 -6.136393 10.584379 -16.548242 16.157955 7.612644 -7.350535 -7.103400 -20.697041 -6.663606 -4.963143 -13.507447 -0.375338 2.499442 1.813588 0.000000 0.000000 0.000000 9.994474 -17.602025 5.420055 8.254462 11.765533 -17.516379 -22.166050 -17.107306 52.129703 21.239468 -56.415303 25.666696 0.000000 0.000000 0.000000 7.309329 2.452562 -3.832903 -5.041248 1.109004 16.787922 -3.370331 1.205855 -12.746988 2.251206 -0.299928 -4.110455 0.700751 -0.014800 0.970452 0.000000 0.000000 0.000000 -4.619682 13.251877 9.545682 -65.706311 -5.154026 14.182388 4.790780 -86.881406 0.354241 4.448543 -12.452049 0.172513 4.495094 -12.437661 0.000000 0.000000 0.000000 0.000000 0.000000 0.000000 0.000000 -0.718645 -13.829447 8.197445 64.733293 3.316464 17.366535 19.084895 69.922539 0.389668 -0.610229 12.560044 0.192454 -0.629201 12.563392 0.000000 0.000000 0.000000 0.000000 0.000000 0.000000 0.000000 
-1.346171 17.039620 26.148275 1.359878 -6.043302 10.022491 -17.271890 16.268123 8.291972 -6.844873 -7.103256 -20.865345 -6.467582 -4.603732 -12.441600 -0.371309 1.867659 0.517953 0.000000 0.000000 0.000000 9.848325 -17.691136 6.300357 7.090787 11.030631 -17.211606 -21.019683 -17.403098 50.884358 20.900770 -56.508763 26.179245 0.000000 0.000000 0.000000 8.621427 2.876322 -5.982954 -7.480342 1.548292 21.531601 -2.595778 1.027874 -13.653007 2.813231 -0.324617 -5.568120 0.451974 0.000102 0.413859 0.000000 0.000000 0.000000 -4.118879 12.591959 9.147201 -65.855295 -5.348562 15.688731 2.402012 -85.580282 0.378958 4.259673 -12.861741 0.184493 4.308676 -12.848098 0.000000 0.000000 0.000000 0.000000 0.000000 0.000000 0.000000 -1.099846 -13.449762 8.084829 65.609535 3.132854 17.354288 16.732659 71.555734 0.382225 -0.966351 12.657017 0.188515 -0.988714 12.659307 0.000000 0.000000 0.000000 0.000000 0.000000 0.000000 0.000000 
